<svg xmlns="http://www.w3.org/2000/svg" xmlns:xlink="http://www.w3.org/1999/xlink" width="500" zoomAndPan="magnify" viewBox="0 0 375 374.999991" height="500" preserveAspectRatio="xMidYMid meet" version="1.0"><defs><g/></defs><g fill="#212008" fill-opacity="1"><g transform="translate(81.587945, 233.453585)"><g><path d="M 3.671875 -144.015625 C 3.671875 -148.390625 4.929688 -151.503906 7.453125 -153.359375 C 9.984375 -155.210938 14.160156 -156.140625 19.984375 -156.140625 C 22.003906 -156.140625 23.769531 -155.925781 25.28125 -155.5 C 26.800781 -155.082031 28.066406 -154.390625 29.078125 -153.421875 C 30.085938 -152.453125 30.910156 -151.144531 31.546875 -149.5 C 32.179688 -147.863281 32.707031 -145.78125 33.125 -143.25 C 34.21875 -135.75 35.332031 -127.890625 36.46875 -119.671875 C 37.613281 -111.453125 38.710938 -103.273438 39.765625 -95.140625 C 40.816406 -87.003906 41.804688 -79.078125 42.734375 -71.359375 C 43.660156 -63.648438 44.484375 -56.488281 45.203125 -49.875 C 45.921875 -43.257812 46.46875 -37.398438 46.84375 -32.296875 C 47.21875 -27.203125 47.40625 -23.179688 47.40625 -20.234375 C 47.40625 -17.191406 47.128906 -14.617188 46.578125 -12.515625 C 46.035156 -10.410156 45.109375 -8.722656 43.796875 -7.453125 C 42.492188 -6.191406 40.8125 -5.285156 38.75 -4.734375 C 36.6875 -4.191406 34.140625 -3.921875 31.109375 -3.921875 C 28.148438 -3.921875 25.804688 -4.675781 24.078125 -6.1875 C 22.359375 -7.707031 21.5 -10.03125 21.5 -13.15625 C 21.5 -16.351562 21.242188 -20.628906 20.734375 -25.984375 C 20.234375 -31.335938 19.5625 -37.300781 18.71875 -43.875 C 17.875 -50.445312 16.921875 -57.441406 15.859375 -64.859375 C 14.804688 -72.273438 13.710938 -79.609375 12.578125 -86.859375 C 11.441406 -94.109375 10.347656 -101.082031 9.296875 -107.78125 C 8.242188 -114.488281 7.296875 -120.429688 6.453125 -125.609375 C 5.609375 -130.796875 4.929688 -135.050781 4.421875 -138.375 C 3.921875 -141.707031 3.671875 -143.585938 3.671875 -144.015625 Z M 3.671875 -144.015625 "/></g></g></g><g fill="#212008" fill-opacity="1"><g transform="translate(130.842202, 233.453585)"><g><path d="M 29.453125 -128.96875 C 27.015625 -128.96875 24.71875 -129.320312 22.5625 -130.03125 C 20.414062 -130.75 18.5625 -131.757812 17 -133.0625 C 15.445312 -134.375 14.207031 -135.914062 13.28125 -137.6875 C 12.351562 -139.457031 11.890625 -141.394531 11.890625 -143.5 C 11.890625 -147.039062 13.300781 -149.90625 16.125 -152.09375 C 18.945312 -154.289062 22.71875 -155.390625 27.4375 -155.390625 C 29.625 -155.390625 31.726562 -154.988281 33.75 -154.1875 C 35.78125 -153.382812 37.570312 -152.304688 39.125 -150.953125 C 40.6875 -149.609375 41.929688 -148.03125 42.859375 -146.21875 C 43.785156 -144.40625 44.25 -142.53125 44.25 -140.59375 C 44.25 -136.96875 42.921875 -134.125 40.265625 -132.0625 C 37.609375 -130 34.003906 -128.96875 29.453125 -128.96875 Z M 12.140625 -90.40625 C 12.140625 -93.351562 13.421875 -95.773438 15.984375 -97.671875 C 18.554688 -99.566406 21.953125 -100.515625 26.171875 -100.515625 C 33.753906 -100.515625 37.800781 -97.898438 38.3125 -92.671875 C 38.644531 -89.046875 39 -84.957031 39.375 -80.40625 C 39.757812 -75.851562 40.140625 -71.023438 40.515625 -65.921875 C 40.898438 -60.828125 41.238281 -55.5625 41.53125 -50.125 C 41.820312 -44.6875 42.09375 -39.332031 42.34375 -34.0625 C 42.601562 -28.800781 42.816406 -23.722656 42.984375 -18.828125 C 43.148438 -13.941406 43.234375 -9.476562 43.234375 -5.4375 C 43.234375 -1.21875 41.738281 1.941406 38.75 4.046875 C 35.757812 6.148438 31.398438 7.203125 25.671875 7.203125 C 23.054688 7.203125 21.007812 6.59375 19.53125 5.375 C 18.0625 4.15625 17.328125 2.363281 17.328125 0 C 17.328125 -11.632812 17.050781 -22.53125 16.5 -32.6875 C 15.945312 -42.84375 15.351562 -51.878906 14.71875 -59.796875 C 14.09375 -67.722656 13.503906 -74.320312 12.953125 -79.59375 C 12.410156 -84.863281 12.140625 -88.46875 12.140625 -90.40625 Z M 12.140625 -90.40625 "/></g></g></g><g fill="#212008" fill-opacity="1"><g transform="translate(179.211406, 233.453585)"><g><path d="M 63.46875 -31.359375 C 60.601562 -31.359375 57.84375 -31.144531 55.1875 -30.71875 C 52.53125 -30.300781 50.0625 -29.859375 47.78125 -29.390625 C 45.507812 -28.929688 43.488281 -28.488281 41.71875 -28.0625 C 39.945312 -27.644531 38.554688 -27.4375 37.546875 -27.4375 C 36.617188 -27.4375 35.671875 -27.835938 34.703125 -28.640625 C 33.734375 -29.441406 32.867188 -30.472656 32.109375 -31.734375 C 31.347656 -32.992188 30.710938 -34.382812 30.203125 -35.90625 C 29.703125 -37.425781 29.453125 -38.898438 29.453125 -40.328125 C 29.453125 -41.597656 30.359375 -43.367188 32.171875 -45.640625 C 33.984375 -47.921875 36.21875 -50.492188 38.875 -53.359375 C 41.53125 -56.222656 44.4375 -59.296875 47.59375 -62.578125 C 50.757812 -65.867188 53.671875 -69.15625 56.328125 -72.4375 C 58.984375 -75.726562 61.21875 -78.910156 63.03125 -81.984375 C 64.84375 -85.066406 65.75 -87.875 65.75 -90.40625 C 65.75 -93.269531 64.691406 -95.394531 62.578125 -96.78125 C 60.472656 -98.175781 57.734375 -98.875 54.359375 -98.875 C 49.722656 -98.875 45.109375 -98.320312 40.515625 -97.21875 C 35.921875 -96.125 31.644531 -94.898438 27.6875 -93.546875 C 23.726562 -92.203125 20.164062 -90.984375 17 -89.890625 C 13.84375 -88.796875 11.378906 -88.25 9.609375 -88.25 C 8.429688 -88.25 7.3125 -88.585938 6.25 -89.265625 C 5.195312 -89.941406 4.25 -90.847656 3.40625 -91.984375 C 2.570312 -93.117188 1.921875 -94.441406 1.453125 -95.953125 C 0.992188 -97.472656 0.765625 -99.078125 0.765625 -100.765625 C 0.765625 -103.710938 1.25 -106.300781 2.21875 -108.53125 C 3.1875 -110.769531 4.507812 -112.226562 6.1875 -112.90625 C 9.394531 -114.082031 13.210938 -115.195312 17.640625 -116.25 C 22.066406 -117.3125 26.679688 -118.257812 31.484375 -119.09375 C 36.285156 -119.9375 41.066406 -120.585938 45.828125 -121.046875 C 50.585938 -121.515625 54.910156 -121.75 58.796875 -121.75 C 69.242188 -121.75 77.207031 -119.660156 82.6875 -115.484375 C 88.164062 -111.316406 90.90625 -105.273438 90.90625 -97.359375 C 90.90625 -93.816406 90.460938 -90.484375 89.578125 -87.359375 C 88.691406 -84.242188 87.300781 -81.125 85.40625 -78 C 83.507812 -74.882812 81.128906 -71.660156 78.265625 -68.328125 C 75.398438 -65.003906 71.941406 -61.40625 67.890625 -57.53125 C 66.296875 -55.925781 65.5 -54.617188 65.5 -53.609375 C 65.5 -52.171875 67.054688 -51.285156 70.171875 -50.953125 C 78.347656 -50.535156 85.578125 -49.101562 91.859375 -46.65625 C 98.140625 -44.207031 103.425781 -40.875 107.71875 -36.65625 C 112.019531 -32.445312 115.285156 -27.453125 117.515625 -21.671875 C 119.753906 -15.898438 120.875 -9.4375 120.875 -2.28125 C 120.875 6.570312 119.25 14.851562 116 22.5625 C 112.757812 30.28125 108.289062 36.984375 102.59375 42.671875 C 96.90625 48.359375 90.226562 52.84375 82.5625 56.125 C 74.894531 59.414062 66.632812 61.0625 57.78125 61.0625 C 49.9375 61.0625 42.601562 59.859375 35.78125 57.453125 C 28.957031 55.054688 23.035156 51.769531 18.015625 47.59375 C 13.003906 43.425781 9.039062 38.539062 6.125 32.9375 C 3.21875 27.332031 1.765625 21.285156 1.765625 14.796875 C 1.765625 11.753906 2.101562 8.695312 2.78125 5.625 C 3.457031 2.550781 4.34375 -0.207031 5.4375 -2.65625 C 6.53125 -5.101562 7.75 -7.082031 9.09375 -8.59375 C 10.445312 -10.113281 11.800781 -10.875 13.15625 -10.875 C 15.257812 -10.875 17.300781 -10.640625 19.28125 -10.171875 C 21.257812 -9.710938 23.03125 -9.082031 24.59375 -8.28125 C 26.15625 -7.476562 27.421875 -6.570312 28.390625 -5.5625 C 29.359375 -4.550781 29.84375 -3.539062 29.84375 -2.53125 C 29.84375 -1.6875 29.691406 -0.820312 29.390625 0.0625 C 29.097656 0.945312 28.800781 1.914062 28.5 2.96875 C 28.207031 4.019531 27.914062 5.132812 27.625 6.3125 C 27.332031 7.5 27.1875 8.765625 27.1875 10.109375 C 27.1875 13.898438 28.050781 17.503906 29.78125 20.921875 C 31.507812 24.335938 33.847656 27.304688 36.796875 29.828125 C 39.742188 32.359375 43.195312 34.363281 47.15625 35.84375 C 51.125 37.320312 55.335938 38.0625 59.796875 38.0625 C 65.191406 38.0625 70.101562 37.15625 74.53125 35.34375 C 78.957031 33.53125 82.75 30.957031 85.90625 27.625 C 89.070312 24.289062 91.519531 20.328125 93.25 15.734375 C 94.976562 11.140625 95.84375 6.0625 95.84375 0.5 C 95.84375 -4.050781 95.019531 -8.265625 93.375 -12.140625 C 91.726562 -16.015625 89.472656 -19.363281 86.609375 -22.1875 C 83.742188 -25.007812 80.328125 -27.242188 76.359375 -28.890625 C 72.398438 -30.535156 68.101562 -31.359375 63.46875 -31.359375 Z M 63.46875 -31.359375 "/></g></g></g></svg>